# xmcd
# Track frame offsets:
# 150
# 16322
# 34210
# 48561
# 65297
# 87720
# 106231
# 126936
# 142106
# 168434
# 183677
# 200530
# 218028
# 230944
# 245473
# 263877
#
# Disc length: 3751 seconds
# Revision: 0
# Processed by: cddbd v1.4PL0 Copyright (c) Steve Scherf et al.
# Submitted via: VisiTrax 2.9.5.181 - For more info visit www.synapsa.com
#
DISCID=f60ea510
DTITLE=Vince Gill - The Next Big Thing
DYEAR=2003
DGENRE=Country
TTITLE0=The Next Big Thing
TTITLE1=She Never Makes Me Cry
TTITLE2=Don't Let Her Get Away
TTITLE3=Someday
TTITLE4=These Broken Hearts
TTITLE5=We Had It All
TTITLE6=Young Man's Town
TTITLE7=Real Mean Bottle
TTITLE8=Whippoorwill River
TTITLE9=The Sun's Gonna Shine On You
TTITLE10=From Where I Stand
TTITLE11=You Ain't Foolin' Nobody
TTITLE12=Old Time Fiddle
TTITLE13=Without You
TTITLE14=Two Hearts
TTITLE15=This Old Guitar And Me
EXTD=
EXTT0=
EXTT1=
EXTT2=
EXTT3=
EXTT4=
EXTT5=
EXTT6=
EXTT7=
EXTT8=
EXTT9=
EXTT10=
EXTT11=
EXTT12=
EXTT13=
EXTT14=
EXTT15=
PLAYORDER=
